<mxfile host="app.diagrams.net" agent="Mozilla/5.0 (Macintosh; Intel Mac OS X 10_15_7) AppleWebKit/537.36 (KHTML, like Gecko) Chrome/133.0.0.0 Safari/537.36" version="26.1.0">
  <diagram name="OverView-Process" id="dMIcxCa9mwxQ5eTWRAVN">
    <mxGraphModel dx="956" dy="507" grid="1" gridSize="10" guides="1" tooltips="1" connect="1" arrows="1" fold="1" page="1" pageScale="1" pageWidth="850" pageHeight="1100" math="0" shadow="0">
      <root>
        <mxCell id="0" />
        <mxCell id="1" parent="0" />
        <mxCell id="3dWvnZH7h9Sck4bzaSIa-33" value="DakiVE-Feedback" style="swimlane;childLayout=stackLayout;resizeParent=1;resizeParentMax=0;horizontal=1;startSize=20;horizontalStack=0;html=1;movable=1;resizable=1;rotatable=1;deletable=1;editable=1;locked=0;connectable=1;" parent="1" vertex="1">
          <mxGeometry x="40" y="20" width="320" height="550" as="geometry" />
        </mxCell>
        <mxCell id="3dWvnZH7h9Sck4bzaSIa-34" value="User Interface" style="swimlane;startSize=20;horizontal=0;html=1;" parent="3dWvnZH7h9Sck4bzaSIa-33" vertex="1">
          <mxGeometry y="20" width="320" height="280" as="geometry" />
        </mxCell>
        <mxCell id="K5O-TfxGRe8j-HqDTY1Z-87" style="edgeStyle=orthogonalEdgeStyle;rounded=0;orthogonalLoop=1;jettySize=auto;html=1;exitX=1;exitY=0.5;exitDx=0;exitDy=0;entryX=0;entryY=0.5;entryDx=0;entryDy=0;" edge="1" parent="3dWvnZH7h9Sck4bzaSIa-34" source="K5O-TfxGRe8j-HqDTY1Z-1" target="K5O-TfxGRe8j-HqDTY1Z-2">
          <mxGeometry relative="1" as="geometry" />
        </mxCell>
        <mxCell id="K5O-TfxGRe8j-HqDTY1Z-1" value="User" style="ellipse;whiteSpace=wrap;html=1;" vertex="1" parent="3dWvnZH7h9Sck4bzaSIa-34">
          <mxGeometry x="50" y="18.5" width="40" height="40" as="geometry" />
        </mxCell>
        <mxCell id="K5O-TfxGRe8j-HqDTY1Z-85" style="edgeStyle=orthogonalEdgeStyle;rounded=0;orthogonalLoop=1;jettySize=auto;html=1;exitX=0.5;exitY=1;exitDx=0;exitDy=0;entryX=0.5;entryY=0;entryDx=0;entryDy=0;" edge="1" parent="3dWvnZH7h9Sck4bzaSIa-34" source="K5O-TfxGRe8j-HqDTY1Z-2" target="K5O-TfxGRe8j-HqDTY1Z-4">
          <mxGeometry relative="1" as="geometry" />
        </mxCell>
        <mxCell id="K5O-TfxGRe8j-HqDTY1Z-88" style="edgeStyle=orthogonalEdgeStyle;rounded=0;orthogonalLoop=1;jettySize=auto;html=1;exitX=1;exitY=0.5;exitDx=0;exitDy=0;entryX=0;entryY=0.5;entryDx=0;entryDy=0;" edge="1" parent="3dWvnZH7h9Sck4bzaSIa-34" source="K5O-TfxGRe8j-HqDTY1Z-2" target="K5O-TfxGRe8j-HqDTY1Z-6">
          <mxGeometry relative="1" as="geometry" />
        </mxCell>
        <mxCell id="K5O-TfxGRe8j-HqDTY1Z-2" value="Account" style="rhombus;whiteSpace=wrap;html=1;" vertex="1" parent="3dWvnZH7h9Sck4bzaSIa-34">
          <mxGeometry x="140" y="10" width="60" height="57.5" as="geometry" />
        </mxCell>
        <mxCell id="K5O-TfxGRe8j-HqDTY1Z-4" value="Login" style="rounded=1;whiteSpace=wrap;html=1;" vertex="1" parent="3dWvnZH7h9Sck4bzaSIa-34">
          <mxGeometry x="149" y="97.75" width="40" height="30" as="geometry" />
        </mxCell>
        <mxCell id="K5O-TfxGRe8j-HqDTY1Z-99" style="edgeStyle=orthogonalEdgeStyle;rounded=0;orthogonalLoop=1;jettySize=auto;html=1;entryX=1;entryY=0.5;entryDx=0;entryDy=0;" edge="1" parent="3dWvnZH7h9Sck4bzaSIa-34">
          <mxGeometry relative="1" as="geometry">
            <mxPoint x="275" y="54.75" as="sourcePoint" />
            <mxPoint x="189" y="113.75" as="targetPoint" />
            <Array as="points">
              <mxPoint x="275" y="114" />
            </Array>
          </mxGeometry>
        </mxCell>
        <mxCell id="K5O-TfxGRe8j-HqDTY1Z-6" value="Register" style="rounded=1;whiteSpace=wrap;html=1;" vertex="1" parent="3dWvnZH7h9Sck4bzaSIa-34">
          <mxGeometry x="250" y="23.75" width="50" height="30" as="geometry" />
        </mxCell>
        <mxCell id="K5O-TfxGRe8j-HqDTY1Z-10" value="" style="rounded=1;whiteSpace=wrap;html=1;dashed=1;movable=1;resizable=1;rotatable=1;deletable=1;editable=1;locked=0;connectable=1;" vertex="1" parent="3dWvnZH7h9Sck4bzaSIa-34">
          <mxGeometry x="55" y="170" width="248" height="90" as="geometry" />
        </mxCell>
        <mxCell id="K5O-TfxGRe8j-HqDTY1Z-13" value="Feedback Form" style="whiteSpace=wrap;html=1;aspect=fixed;movable=1;resizable=1;rotatable=1;deletable=1;editable=1;locked=0;connectable=1;" vertex="1" parent="3dWvnZH7h9Sck4bzaSIa-34">
          <mxGeometry x="223" y="186.87" width="60" height="60" as="geometry" />
        </mxCell>
        <mxCell id="K5O-TfxGRe8j-HqDTY1Z-14" value="User Forum" style="whiteSpace=wrap;html=1;aspect=fixed;movable=1;resizable=1;rotatable=1;deletable=1;editable=1;locked=0;connectable=1;" vertex="1" parent="3dWvnZH7h9Sck4bzaSIa-34">
          <mxGeometry x="153" y="186.87" width="60" height="60" as="geometry" />
        </mxCell>
        <mxCell id="K5O-TfxGRe8j-HqDTY1Z-17" value="User Profile" style="whiteSpace=wrap;html=1;aspect=fixed;movable=1;resizable=1;rotatable=1;deletable=1;editable=1;locked=0;connectable=1;" vertex="1" parent="3dWvnZH7h9Sck4bzaSIa-34">
          <mxGeometry x="73" y="186.87" width="60" height="60" as="geometry" />
        </mxCell>
        <mxCell id="K5O-TfxGRe8j-HqDTY1Z-83" style="edgeStyle=orthogonalEdgeStyle;rounded=0;orthogonalLoop=1;jettySize=auto;html=1;exitX=0.5;exitY=1;exitDx=0;exitDy=0;" edge="1" parent="3dWvnZH7h9Sck4bzaSIa-34" source="K5O-TfxGRe8j-HqDTY1Z-10" target="K5O-TfxGRe8j-HqDTY1Z-10">
          <mxGeometry relative="1" as="geometry" />
        </mxCell>
        <mxCell id="K5O-TfxGRe8j-HqDTY1Z-86" style="edgeStyle=orthogonalEdgeStyle;rounded=0;orthogonalLoop=1;jettySize=auto;html=1;exitX=0.5;exitY=1;exitDx=0;exitDy=0;entryX=0.462;entryY=-0.016;entryDx=0;entryDy=0;entryPerimeter=0;" edge="1" parent="3dWvnZH7h9Sck4bzaSIa-34" source="K5O-TfxGRe8j-HqDTY1Z-4" target="K5O-TfxGRe8j-HqDTY1Z-10">
          <mxGeometry relative="1" as="geometry" />
        </mxCell>
        <mxCell id="3dWvnZH7h9Sck4bzaSIa-35" value="Django" style="swimlane;startSize=20;horizontal=0;html=1;" parent="3dWvnZH7h9Sck4bzaSIa-33" vertex="1">
          <mxGeometry y="300" width="320" height="160" as="geometry" />
        </mxCell>
        <mxCell id="K5O-TfxGRe8j-HqDTY1Z-45" value="user forum" style="rounded=1;whiteSpace=wrap;html=1;dashed=1;" vertex="1" parent="3dWvnZH7h9Sck4bzaSIa-35">
          <mxGeometry x="60" y="40" width="170" height="99.33" as="geometry" />
        </mxCell>
        <mxCell id="K5O-TfxGRe8j-HqDTY1Z-68" style="edgeStyle=orthogonalEdgeStyle;rounded=0;orthogonalLoop=1;jettySize=auto;html=1;entryX=0;entryY=0.5;entryDx=0;entryDy=0;" edge="1" parent="3dWvnZH7h9Sck4bzaSIa-35" source="K5O-TfxGRe8j-HqDTY1Z-52" target="K5O-TfxGRe8j-HqDTY1Z-51">
          <mxGeometry relative="1" as="geometry" />
        </mxCell>
        <mxCell id="K5O-TfxGRe8j-HqDTY1Z-52" value="views" style="rounded=1;whiteSpace=wrap;html=1;" vertex="1" parent="3dWvnZH7h9Sck4bzaSIa-35">
          <mxGeometry x="80" y="47.33" width="40" height="25" as="geometry" />
        </mxCell>
        <mxCell id="K5O-TfxGRe8j-HqDTY1Z-51" value="urls" style="rounded=1;whiteSpace=wrap;html=1;" vertex="1" parent="3dWvnZH7h9Sck4bzaSIa-35">
          <mxGeometry x="175" y="48.33" width="34" height="22" as="geometry" />
        </mxCell>
        <mxCell id="K5O-TfxGRe8j-HqDTY1Z-66" style="edgeStyle=orthogonalEdgeStyle;rounded=0;orthogonalLoop=1;jettySize=auto;html=1;entryX=0.5;entryY=1;entryDx=0;entryDy=0;" edge="1" parent="3dWvnZH7h9Sck4bzaSIa-35" source="K5O-TfxGRe8j-HqDTY1Z-53" target="K5O-TfxGRe8j-HqDTY1Z-52">
          <mxGeometry relative="1" as="geometry" />
        </mxCell>
        <mxCell id="K5O-TfxGRe8j-HqDTY1Z-53" value="serializers" style="rounded=1;whiteSpace=wrap;html=1;" vertex="1" parent="3dWvnZH7h9Sck4bzaSIa-35">
          <mxGeometry x="70" y="104.33" width="60" height="25" as="geometry" />
        </mxCell>
        <mxCell id="K5O-TfxGRe8j-HqDTY1Z-65" style="edgeStyle=orthogonalEdgeStyle;rounded=0;orthogonalLoop=1;jettySize=auto;html=1;entryX=1;entryY=0.5;entryDx=0;entryDy=0;" edge="1" parent="3dWvnZH7h9Sck4bzaSIa-35" source="K5O-TfxGRe8j-HqDTY1Z-54" target="K5O-TfxGRe8j-HqDTY1Z-53">
          <mxGeometry relative="1" as="geometry" />
        </mxCell>
        <mxCell id="K5O-TfxGRe8j-HqDTY1Z-54" value="Models" style="rounded=1;whiteSpace=wrap;html=1;" vertex="1" parent="3dWvnZH7h9Sck4bzaSIa-35">
          <mxGeometry x="165" y="104.33" width="50" height="25" as="geometry" />
        </mxCell>
        <mxCell id="K5O-TfxGRe8j-HqDTY1Z-69" style="edgeStyle=orthogonalEdgeStyle;rounded=0;orthogonalLoop=1;jettySize=auto;html=1;exitX=0.5;exitY=1;exitDx=0;exitDy=0;" edge="1" parent="3dWvnZH7h9Sck4bzaSIa-35" source="K5O-TfxGRe8j-HqDTY1Z-45" target="K5O-TfxGRe8j-HqDTY1Z-45">
          <mxGeometry relative="1" as="geometry" />
        </mxCell>
        <mxCell id="K5O-TfxGRe8j-HqDTY1Z-105" style="edgeStyle=orthogonalEdgeStyle;rounded=0;orthogonalLoop=1;jettySize=auto;html=1;entryX=0.554;entryY=1.019;entryDx=0;entryDy=0;entryPerimeter=0;" edge="1" parent="3dWvnZH7h9Sck4bzaSIa-33" source="K5O-TfxGRe8j-HqDTY1Z-51" target="K5O-TfxGRe8j-HqDTY1Z-10">
          <mxGeometry relative="1" as="geometry" />
        </mxCell>
        <mxCell id="3dWvnZH7h9Sck4bzaSIa-36" value="PostgreSQL" style="swimlane;startSize=20;horizontal=0;html=1;" parent="3dWvnZH7h9Sck4bzaSIa-33" vertex="1">
          <mxGeometry y="460" width="320" height="90" as="geometry" />
        </mxCell>
        <mxCell id="K5O-TfxGRe8j-HqDTY1Z-106" value="Databases" style="rounded=1;whiteSpace=wrap;html=1;" vertex="1" parent="3dWvnZH7h9Sck4bzaSIa-36">
          <mxGeometry x="65" y="15" width="65" height="60" as="geometry" />
        </mxCell>
        <mxCell id="K5O-TfxGRe8j-HqDTY1Z-111" style="edgeStyle=orthogonalEdgeStyle;rounded=0;orthogonalLoop=1;jettySize=auto;html=1;entryX=1;entryY=0.583;entryDx=0;entryDy=0;entryPerimeter=0;" edge="1" parent="3dWvnZH7h9Sck4bzaSIa-33" source="K5O-TfxGRe8j-HqDTY1Z-54" target="K5O-TfxGRe8j-HqDTY1Z-106">
          <mxGeometry relative="1" as="geometry">
            <Array as="points">
              <mxPoint x="190" y="510" />
            </Array>
          </mxGeometry>
        </mxCell>
        <mxCell id="K5O-TfxGRe8j-HqDTY1Z-96" value="Y" style="text;html=1;align=center;verticalAlign=middle;resizable=0;points=[];autosize=1;strokeColor=none;fillColor=none;" vertex="1" parent="1">
          <mxGeometry x="185" y="105" width="30" height="30" as="geometry" />
        </mxCell>
        <mxCell id="K5O-TfxGRe8j-HqDTY1Z-97" value="N" style="text;html=1;align=center;verticalAlign=middle;resizable=0;points=[];autosize=1;strokeColor=none;fillColor=none;" vertex="1" parent="1">
          <mxGeometry x="245" y="55" width="30" height="30" as="geometry" />
        </mxCell>
      </root>
    </mxGraphModel>
  </diagram>
</mxfile>
